<svg width="80" height="80" viewBox="0 0 80 80" fill="none" xmlns="http://www.w3.org/2000/svg">
  <path d="M50.7478 24H31.2478C30.4121 24 29.855 24.5571 29.855 25.3929V42.1071C29.855 42.9429 30.4121 43.5 31.2478 43.5H50.7478C51.5836 43.5 52.1407 42.9429 52.1407 42.1071V25.3929C52.1407 24.5571 51.5836 24 50.7478 24ZM38.2121 28.1786C39.0478 28.1786 39.605 28.7357 39.605 29.5714C39.605 30.4071 39.0478 30.9643 38.2121 30.9643C37.3764 30.9643 36.8193 30.4071 36.8193 29.5714C36.8193 28.7357 37.3764 28.1786 38.2121 28.1786ZM32.6407 39.3214L35.4264 33.75L39.605 36.5357L43.7836 30.9643L49.355 39.3214H32.6407Z" fill="#CCD5DC"/>
  <path d="M25.416 56.75H23.9512L21.0996 52.0723V56.75H19.6348V49.6406H21.0996L23.9561 54.3281V49.6406H25.416V56.75ZM26.3828 54.0596C26.3828 53.5355 26.4837 53.0684 26.6855 52.6582C26.8874 52.248 27.1771 51.9307 27.5547 51.7061C27.9355 51.4814 28.3766 51.3691 28.8779 51.3691C29.5908 51.3691 30.1719 51.5872 30.6211 52.0234C31.0736 52.4596 31.3258 53.0521 31.3779 53.8008L31.3877 54.1621C31.3877 54.9727 31.1615 55.6237 30.709 56.1152C30.2565 56.6035 29.6494 56.8477 28.8877 56.8477C28.126 56.8477 27.5173 56.6035 27.0615 56.1152C26.609 55.627 26.3828 54.9629 26.3828 54.123V54.0596ZM27.7939 54.1621C27.7939 54.6634 27.8883 55.0475 28.0771 55.3145C28.266 55.5781 28.5361 55.71 28.8877 55.71C29.2295 55.71 29.4964 55.5798 29.6885 55.3193C29.8805 55.0557 29.9766 54.6357 29.9766 54.0596C29.9766 53.568 29.8805 53.1872 29.6885 52.917C29.4964 52.6468 29.2262 52.5117 28.8779 52.5117C28.5329 52.5117 28.266 52.6468 28.0771 52.917C27.8883 53.1839 27.7939 53.599 27.7939 54.1621ZM36.2363 56.75H34.8203V51.4668H36.2363V56.75ZM34.7373 50.0996C34.7373 49.888 34.8073 49.7139 34.9473 49.5771C35.0905 49.4404 35.2842 49.3721 35.5283 49.3721C35.7692 49.3721 35.9613 49.4404 36.1045 49.5771C36.2477 49.7139 36.3193 49.888 36.3193 50.0996C36.3193 50.3145 36.2461 50.4902 36.0996 50.627C35.9564 50.7637 35.766 50.832 35.5283 50.832C35.2907 50.832 35.0986 50.7637 34.9521 50.627C34.8089 50.4902 34.7373 50.3145 34.7373 50.0996ZM38.7266 51.4668L38.7705 52.0576C39.1449 51.5986 39.651 51.3691 40.2891 51.3691C40.9694 51.3691 41.4365 51.6377 41.6904 52.1748C42.0615 51.6377 42.5905 51.3691 43.2773 51.3691C43.8503 51.3691 44.2767 51.5368 44.5566 51.8721C44.8366 52.2041 44.9766 52.7054 44.9766 53.376V56.75H43.5605V53.3809C43.5605 53.0814 43.502 52.8633 43.3848 52.7266C43.2676 52.5866 43.0609 52.5166 42.7646 52.5166C42.3415 52.5166 42.0485 52.7184 41.8857 53.1221L41.8906 56.75H40.4795V53.3857C40.4795 53.0798 40.4193 52.8584 40.2988 52.7217C40.1784 52.585 39.9733 52.5166 39.6836 52.5166C39.2832 52.5166 38.9935 52.6826 38.8145 53.0146V56.75H37.4033V51.4668H38.7266ZM49.127 56.75C49.0618 56.623 49.0146 56.4652 48.9854 56.2764C48.6436 56.6572 48.1992 56.8477 47.6523 56.8477C47.1348 56.8477 46.7051 56.6979 46.3633 56.3984C46.0247 56.099 45.8555 55.7214 45.8555 55.2656C45.8555 54.7057 46.0622 54.276 46.4756 53.9766C46.8923 53.6771 47.4928 53.5257 48.2773 53.5225H48.9268V53.2197C48.9268 52.9756 48.8633 52.7803 48.7363 52.6338C48.6126 52.4873 48.4157 52.4141 48.1455 52.4141C47.9079 52.4141 47.7207 52.471 47.584 52.585C47.4505 52.6989 47.3838 52.8551 47.3838 53.0537H45.9727C45.9727 52.7477 46.0671 52.4645 46.2559 52.2041C46.4447 51.9437 46.7116 51.7402 47.0566 51.5938C47.4017 51.444 47.7891 51.3691 48.2188 51.3691C48.8698 51.3691 49.3857 51.5335 49.7666 51.8623C50.1507 52.1878 50.3428 52.6468 50.3428 53.2393V55.5293C50.346 56.0306 50.416 56.4098 50.5527 56.667V56.75H49.127ZM47.96 55.7686C48.1683 55.7686 48.3604 55.723 48.5361 55.6318C48.7119 55.5374 48.8421 55.4121 48.9268 55.2559V54.3477H48.3994C47.693 54.3477 47.3171 54.5918 47.2715 55.0801L47.2666 55.1631C47.2666 55.3389 47.3285 55.4837 47.4521 55.5977C47.5758 55.7116 47.7451 55.7686 47.96 55.7686ZM51.2217 54.0693C51.2217 53.2588 51.4137 52.6061 51.7979 52.1113C52.1852 51.6165 52.7061 51.3691 53.3604 51.3691C53.9398 51.3691 54.3906 51.5677 54.7129 51.9648L54.7715 51.4668H56.0508V56.5742C56.0508 57.0365 55.945 57.4385 55.7334 57.7803C55.5251 58.1221 55.2305 58.3825 54.8496 58.5615C54.4688 58.7406 54.0228 58.8301 53.5117 58.8301C53.1243 58.8301 52.7467 58.752 52.3789 58.5957C52.0111 58.4427 51.7327 58.2441 51.5439 58L52.1689 57.1406C52.5205 57.5345 52.9469 57.7314 53.4482 57.7314C53.8226 57.7314 54.1139 57.6305 54.3223 57.4287C54.5306 57.2301 54.6348 56.9469 54.6348 56.5791V56.2959C54.3092 56.6637 53.8812 56.8477 53.3506 56.8477C52.7158 56.8477 52.2015 56.6003 51.8076 56.1055C51.417 55.6074 51.2217 54.9482 51.2217 54.1279V54.0693ZM52.6328 54.1719C52.6328 54.6504 52.7288 55.0264 52.9209 55.2998C53.113 55.57 53.3766 55.7051 53.7119 55.7051C54.1416 55.7051 54.4492 55.5439 54.6348 55.2217V53C54.446 52.6777 54.1416 52.5166 53.7217 52.5166C53.3831 52.5166 53.1162 52.6549 52.9209 52.9316C52.7288 53.2083 52.6328 53.6217 52.6328 54.1719ZM59.5713 56.8477C58.7965 56.8477 58.165 56.61 57.6768 56.1348C57.1917 55.6595 56.9492 55.0264 56.9492 54.2354V54.0986C56.9492 53.568 57.0518 53.0944 57.2568 52.6777C57.4619 52.2578 57.7516 51.9355 58.126 51.7109C58.5036 51.4831 58.9333 51.3691 59.415 51.3691C60.1377 51.3691 60.7057 51.597 61.1191 52.0527C61.5358 52.5085 61.7441 53.1546 61.7441 53.9912V54.5674H58.3799C58.4255 54.9124 58.5622 55.1891 58.79 55.3975C59.0212 55.6058 59.3125 55.71 59.6641 55.71C60.2077 55.71 60.6325 55.513 60.9385 55.1191L61.6318 55.8955C61.4202 56.195 61.1338 56.4294 60.7725 56.5986C60.4111 56.7646 60.0107 56.8477 59.5713 56.8477ZM59.4102 52.5117C59.1302 52.5117 58.9023 52.6061 58.7266 52.7949C58.554 52.9837 58.4434 53.2539 58.3945 53.6055H60.3574V53.4932C60.3509 53.1807 60.2663 52.9398 60.1035 52.7705C59.9408 52.598 59.7096 52.5117 59.4102 52.5117Z" fill="#CCD5DC"/>
</svg>
