<?xml version="1.0" encoding="utf-8"?>
<!-- Svg Vector Icons : http://www.onlinewebfonts.com/icon -->
<!DOCTYPE svg PUBLIC "-//W3C//DTD SVG 1.1//EN" "http://www.w3.org/Graphics/SVG/1.1/DTD/svg11.dtd">
<svg version="1.1" xmlns="http://www.w3.org/2000/svg" xmlns:xlink="http://www.w3.org/1999/xlink" x="0px" y="0px" viewBox="0 0 1000 1000" enable-background="new 0 0 1000 1000" xml:space="preserve">
<metadata> Svg Vector Icons : http://www.onlinewebfonts.com/icon </metadata>
<g><g transform="translate(0.000000,512.000000) scale(0.100000,-0.100000)"><path d="M4622.6,5016.9c-693.8-70.9-1213.2-214.7-1782.4-494.5c-500.2-245.3-856.7-498.3-1263-891.2c-417.8-408.2-722.6-828-981.3-1353.1c-241.5-494.5-389.1-979.4-471.5-1552.4c-32.6-226.2-32.6-981.3,0-1207.5c136.1-950.6,504.1-1803.5,1082.9-2506.9c1353.1-1642.5,3595.5-2229,5571.5-1458.5C8043.7-3952.7,9071-2923.5,9569.3-1650.9C9772.5-1127.7,9876-625.6,9897-41c46,1326.3-446.6,2604.6-1374.2,3562.9c-421.7,435.1-833.7,736-1370.4,998.5c-483,237.7-927.6,377.6-1466.2,460C5492.8,5009.2,4789.4,5034.1,4622.6,5016.9z M5648,4654.6c477.2-70.9,920-208.9,1372.3-431.2c1197.9-590.3,2087.2-1688.5,2413-2980.3c103.5-414,132.3-655.5,132.3-1121.2c0-465.7-28.8-707.2-132.3-1121.2C9025-2616.9,7735.2-3906.7,6117.6-4315c-414-103.5-655.5-132.2-1121.2-132.2c-465.7,0-707.2,28.8-1121.2,132.2C2255.7-3906.7,973.5-2624.5,559.5-1001.2C456-591.1,427.3-345.7,427.3,121.9c0,300.9,9.6,475.3,34.5,642.1c318.1,2108.2,1983.7,3699,4103.4,3917.5C4808.5,4708.3,5387.4,4692.9,5648,4654.6z"/><path d="M4913.9,4355.6c-69-40.3-90.1-136.1-90.1-400.6v-249.2h-90.1c-51.7,0-178.2-13.4-281.7-28.8c-105.4-15.3-199.3-28.8-210.8-28.8c-11.5,0-51.8,113.1-88.2,249.2c-67.1,258.7-97.7,312.4-191.7,333.5c-67.1,17.2-164.8-47.9-180.1-116.9c-7.7-32.6,13.4-147.6,55.6-302.8c36.4-136.1,59.4-253,51.8-260.7c-7.7-7.7-47.9-23-90.1-36.4c-42.2-13.4-162.9-61.3-266.4-109.2c-105.4-46-191.7-80.5-195.5-76.7c-3.8,1.9-63.2,103.5-132.3,224.2c-70.9,120.7-141.8,231.9-159.1,245.3c-51.7,40.2-153.3,28.8-205.1-24.9c-76.7-74.7-63.2-138,84.3-391l132.2-228.1l-111.2-80.5c-63.2-42.2-170.6-124.6-241.5-184L2575.7,2786l-197.4,191.7c-180.2,176.3-203.2,191.7-272.2,191.7c-97.7,0-157.2-61.3-157.2-162.9c0-67.1,15.3-88.2,193.6-268.3l191.7-195.5l-76.7-90.1c-42.2-47.9-126.5-157.2-185.9-241.5l-109.2-153.3l-59.4,36.4c-412.1,251.1-471.5,270.2-557.7,184c-53.7-51.7-65.2-153.3-23-207c11.5-17.3,122.7-88.2,243.4-159.1c120.7-69,222.3-128.4,226.2-130.3c1.9-3.8-32.6-90.1-78.6-195.5c-47.9-103.5-95.8-224.2-109.2-266.4c-13.4-42.2-30.7-84.3-38.3-92c-7.7-7.7-126.5,15.3-264.5,53.7c-161,44.1-270.2,63.3-302.8,55.6c-65.2-17.2-126.5-116.9-111.2-180.2c21.1-95.8,76.7-126.5,335.4-193.6c136.1-34.5,247.2-72.8,247.2-86.3c0-11.5-13.4-105.4-28.8-210.8c-15.3-103.5-28.8-230-28.8-279.8v-92h-253c-205.1,0-268.3-7.7-322-34.5c-78.6-38.3-111.2-113.1-84.3-189.8c32.6-95.8,118.8-120.7,406.3-120.7h253v-90.1c0-51.7,13.4-178.2,28.8-281.7c15.3-105.4,28.8-199.3,28.8-210.8c0-13.4-111.2-51.8-247.2-86.3C963.9-786.5,908.3-817.2,887.2-913c-15.4-63.2,46-162.9,111.2-180.1c32.6-7.7,141.8,11.5,302.8,55.6c138,38.3,256.8,61.3,264.5,53.7c7.7-7.7,24.9-49.8,38.3-92c13.4-42.2,61.3-162.9,109.2-266.4c46-105.4,80.5-191.7,78.6-195.5c-3.8-1.9-105.4-61.3-226.2-130.3c-120.7-70.9-231.9-141.8-243.4-159.1c-42.1-53.7-30.7-155.2,23-207c72.8-74.7,134.2-61.3,389.1,84.3l230,132.2l80.5-113.1c42.2-61.3,126.5-168.7,184-239.6l105.4-128.4l-193.6-195.5c-178.2-182.1-191.7-201.2-191.7-272.2c0-99.7,59.4-159.1,161-159.1c65.2,0,90.1,17.3,270.2,193.6l199.3,193.6l122.7-105.4c67.1-57.5,174.4-139.9,239.6-184l116.9-78.6l-132.3-230c-149.5-254.9-162.9-318.1-86.2-392.9c51.7-53.7,153.3-65.2,205.1-23c17.3,11.5,90.1,122.7,159.1,243.4c70.9,120.7,130.3,222.3,132.3,226.2c3.8,1.9,90.1-32.6,195.5-78.6c103.5-47.9,224.2-95.8,266.4-109.2c42.2-13.4,82.4-30.7,92-36.4c7.7-7.7-17.2-130.3-55.6-272.1c-78.6-295.2-74.8-345,38.3-391c74.7-30.7,138-17.3,184,38.3c15.3,19.2,59.4,147.6,97.8,285.6c46,164.8,78.6,249.2,93.9,245.3c86.2-21.1,408.2-61.3,484.9-61.3h90.1v-249.2c0-285.6,23-371.8,109.2-404.4c82.4-30.7,162.9,0,201.2,78.6c26.8,53.7,34.5,116.9,34.5,318.1v251.1l178.2,13.4c95.8,7.7,230,24.9,297.1,38.3c90.1,19.2,122.7,21.1,128.4,3.8c5.7-11.5,34.5-124.6,69-251.1c61.3-235.7,88.2-289.4,166.7-318.1c65.2-24.9,164.8,23,193.6,92c21.1,51.7,15.3,90.1-46,312.4c-38.3,139.9-61.3,260.6-53.7,268.3c7.7,7.7,49.8,24.9,92,38.3c42.2,13.4,162.9,61.3,266.4,109.2c105.4,46,191.7,80.5,195.5,78.6c1.9-3.8,61.3-105.4,130.4-226.2c70.9-120.7,141.8-231.9,159.1-245.3c53.7-40.3,155.2-28.8,207,24.9c74.8,72.8,61.3,134.2-84.3,391L6934-2906.3l116.9,78.6c65.1,44.1,172.5,126.5,239.6,184l124.6,105.4l195.5-193.6c184-180.1,203.2-193.6,274.1-193.6c99.7,0,159.1,59.4,159.1,161c0,65.2-17.3,90.1-193.6,270.2l-193.6,199.3l105.4,122.7c57.5,67.1,139.9,174.4,184,239.6l78.6,116.9l230-132.3c254.9-149.5,318.1-162.9,392.9-86.3c53.7,51.8,65.2,153.3,24.9,205.1c-13.4,17.3-124.6,90.1-245.3,159.1c-120.7,70.9-222.3,130.3-226.2,132.3c-1.9,3.8,32.6,90.1,78.6,195.5c47.9,103.5,95.8,224.2,109.2,266.4c13.4,42.2,30.7,84.3,38.3,92c7.7,7.7,128.4-15.3,268.3-53.7c222.3-61.3,260.6-67.1,312.4-46c69,28.8,116.9,128.4,92,193.6c-28.8,76.7-82.4,103.5-318.1,166.7c-126.5,34.5-239.6,65.2-251.1,69c-17.3,5.7-15.4,38.3,3.8,128.4c13.4,67.1,30.7,201.2,38.3,299l13.4,176.3h251.1c201.2,0,264.5,7.7,318.1,34.5c78.6,38.3,109.2,118.8,78.6,201.3c-32.6,86.2-118.8,109.2-404.4,109.2h-249.2v92c0,74.8-40.2,396.7-61.3,483c-3.8,15.3,80.5,47.9,245.3,93.9c138,38.3,266.4,82.4,285.6,97.7c55.6,46,69,109.2,38.3,184c-46,111.2-95.8,116.9-391,36.4c-141.8-36.4-264.5-61.3-270.2-53.7c-7.7,7.7-24.9,49.8-38.3,92s-61.3,162.9-109.2,266.4c-46,105.4-80.5,191.7-76.7,195.5c1.9,3.8,103.5,63.2,224.2,132.2c120.7,70.9,231.9,141.8,245.3,159.1c40.3,51.8,28.8,153.3-24.9,205.1c-74.8,76.7-138,63.2-392.9-86.2l-230-132.2l-78.6,116.9c-44.1,65.2-126.5,172.5-184,239.6l-105.4,122.7l193.6,199.3c178.2,182.1,193.6,205.1,193.6,274.1c0,97.8-61.3,157.2-162.9,157.2c-67.1,0-88.2-15.3-270.2-193.6l-195.5-193.6l-122.7,103.5c-65.1,55.6-174.4,139.9-239.6,185.9l-120.7,84.3l36.4,59.4c147.6,239.6,231.9,404.4,231.9,454.2c0,116.9-162.9,197.4-254.9,128.4c-17.3-13.4-88.2-124.6-159.1-245.3c-69-120.7-128.4-222.3-130.4-226.2c-3.8-1.9-90.1,32.6-195.5,78.6c-103.5,47.9-224.2,95.8-266.4,109.2s-84.3,30.7-92,38.3c-7.7,7.7,15.3,128.4,53.7,268.3c59.4,220.4,67.1,262.6,46,310.5c-26.8,67.1-116.9,118.8-176.3,99.7c-92-26.8-122.7-80.5-187.8-335.4c-34.5-136.1-72.8-247.2-86.2-247.2c-11.5,0-105.4,13.4-210.8,28.8c-103.5,15.3-230,28.8-279.8,28.8h-92v249.2c0,176.3-7.7,270.2-28.8,316.2C5101.8,4363.3,4996.4,4403.5,4913.9,4355.6z M5262.8,3380.1C7227.3,3205.7,8595.7,1375.4,8197-545.1c-201.2-966-835.6-1792-1728.7-2248.1c-1052.2-534.7-2301.8-458.1-3292.7,203.1C1818.7-1683.5,1339.5,114.3,2065.9,1567c552,1105.9,1640.6,1793.9,2892.1,1830.3C5005.9,3397.3,5142,3389.7,5262.8,3380.1z"/><path d="M4841.1,2550.2c-362.2-136.1-448.5-582.6-161-833.7c34.5-32.6,82.4-63.3,103.5-70.9c38.3-11.5,40.2-26.8,40.2-287.5V1084l-65.2-11.5c-124.6-23-339.2-147.6-452.3-260.7c-113.1-113.1-237.6-327.7-260.6-452.3l-11.5-65.2h-274.1c-260.6,0-276,1.9-287.5,40.3c-7.7,21.1-38.3,69-70.9,103.5c-226.2,258.7-605.6,222.3-791.5-76.7c-49.8-82.4-57.5-109.2-57.5-237.7c0-124.6,7.7-159.1,51.8-233.8c61.3-103.5,149.5-184,245.3-224.2c88.2-36.4,279.8-36.4,366.1,0c92,40.2,218.5,155.2,247.2,226.2l23,57.5h274.1h274.1l11.5-65.2c23-124.6,147.6-339.2,260.6-452.3c113.1-113.1,327.7-237.6,452.3-260.6l65.2-11.5v-274.1c0-260.6-1.9-276-40.2-287.5c-21.1-7.7-69-38.3-103.5-70.9c-258.7-226.2-222.3-605.6,76.7-791.5c82.4-49.8,109.2-57.5,237.7-57.5c124.6,0,159.1,7.7,233.8,51.7c103.5,61.3,178.2,141.8,222.3,243.4c38.3,88.2,40.2,279.8,1.9,368c-40.2,92-155.2,218.5-226.2,247.2l-57.5,23v274.1v274.1l65.2,11.5c124.6,23,339.2,147.6,452.3,260.6C5799.4-455,5924-240.3,5947-115.7l11.5,65.2h274.1h274.1l23-57.5c28.8-70.9,155.2-185.9,247.2-226.2c88.2-38.3,279.8-36.4,368,1.9c101.6,44.1,182.1,118.8,243.4,222.3c44.1,74.7,51.7,109.3,51.7,233.8c0,128.4-7.7,155.2-57.5,237.7c-185.9,299-565.4,335.4-791.5,76.7c-32.6-34.5-63.2-82.4-70.9-103.5c-11.5-38.3-26.8-40.3-287.5-40.3h-274.1l-11.5,65.2c-23,124.6-147.6,339.2-260.7,452.3c-113.1,113.1-327.7,237.7-452.3,260.7l-65.2,11.5v274.1v274.1l57.5,23c70.9,28.7,185.9,155.2,226.2,247.2c36.4,86.2,36.4,277.9,0,366.1c-40.2,95.8-120.7,184-218.5,241.5C5130.5,2571.3,4946.5,2588.5,4841.1,2550.2z M5101.8,2201.4c72.8-70.9,70.9-168.7-1.9-233.8c-153.3-139.9-356.5,88.2-208.9,233.8c28.8,30.7,69,47.9,105.4,47.9C5032.8,2249.3,5073,2232.1,5101.8,2201.4z M5266.6,712.2c138-63.2,256.8-180.2,322-320.1c42.2-90.1,49.8-134.2,49.8-270.2c0-195.5-53.7-331.6-182.1-460c-128.4-128.4-264.5-182.1-460-182.1c-136.1,0-180.1,7.7-270.2,49.8c-368,172.5-490.7,621-264.5,962.1c69,105.4,162.9,178.3,302.8,237.7C4912,790.8,5113.3,785.1,5266.6,712.2z M3156.4,221.6c115-145.7-61.3-329.7-218.5-226.2c-97.8,63.2-86.2,208.9,21.1,262.6C3037.6,296.3,3108.5,284.8,3156.4,221.6z M7095,212c113.1-161-122.7-339.3-253-193.6c-53.7,59.4-55.6,139.9-5.8,205.1C6899.5,304,7035.6,298.2,7095,212z M5101.8-1721.8c90.1-78.6,53.7-247.2-57.5-276c-113.1-28.8-208.9,51.7-205.1,170.6c1.9,76.7,78.6,147.6,157.2,147.6C5027-1679.7,5075-1698.8,5101.8-1721.8z"/></g></g>
</svg>